<?xml version="1.0" encoding="utf-8"?>
<!-- Generator: Adobe Illustrator 22.0.1, SVG Export Plug-In . SVG Version: 6.00 Build 0)  -->
<svg version="1.1" id="Layer_1" xmlns="http://www.w3.org/2000/svg" xmlns:xlink="http://www.w3.org/1999/xlink" x="0px" y="0px"
	 viewBox="0 0 40 36" style="enable-background:new 0 0 40 36;" xml:space="preserve">
<style type="text/css">
	.st0{fill-rule:evenodd;clip-rule:evenodd;fill:#4B686C;}
</style>
<g>
	<path class="st0" d="M38,16H2c-1.1,0-2,0.9-2,2s0.9,2,2,2h36c1.1,0,2-0.9,2-2S39.1,16,38,16z"/>
	<path class="st0" d="M38,32H2c-1.1,0-2,0.9-2,2c0,1.1,0.9,2,2,2h36c1.1,0,2-0.9,2-2C40,32.9,39.1,32,38,32z"/>
	<path class="st0" d="M2,4h36c1.1,0,2-0.9,2-2s-0.9-2-2-2H2C0.9,0,0,0.9,0,2S0.9,4,2,4z"/>
</g>
</svg>
