<?xml version="1.0" encoding="utf-8"?>
<!-- Generator: Adobe Illustrator 22.0.1, SVG Export Plug-In . SVG Version: 6.00 Build 0)  -->
<svg version="1.1" id="Layer_1" xmlns="http://www.w3.org/2000/svg" xmlns:xlink="http://www.w3.org/1999/xlink" x="0px" y="0px"
	 viewBox="0 0 98 56" style="enable-background:new 0 0 98 56;" xml:space="preserve">
<style type="text/css">
	.st0{fill:#FB892D;}
	.st1{fill:#56775B;}
</style>
<path class="st0" d="M80,28c0,5.2-2.1,10-5.6,13.4l1.4,1.4C79.6,39,82,33.8,82,28s-2.4-11-6.2-14.8l-1.4,1.4C77.9,18,80,22.8,80,28z
	"/>
<path class="st1" d="M67,1c-2,0-2,0-7,3s-10,6-15,9c-3.5,2.1-4.6,2.7-6.6,2.9c0.4,0.6,0.8,1.3,1.2,2c1.9-0.2,3-0.9,6.5-2.9
	c5-3,10-6,15-9s5-3,6-3s1,1,1,1v24v24c0,0,0,1-1,1s-1,0-6-3s-10-6-15-9c-3.4-2.1-4.5-2.7-6.5-2.9c-0.4,0.7-0.7,1.3-1.2,2
	c2.1,0.2,3.1,0.8,6.6,2.9c5,3,10,6,15,9s5,3,7,3c3,0,3-3,3-3V28V4C70,4,70,1,67,1z"/>
<path class="st1" d="M20,8C9,8,0,17,0,28s9,20,20,20s20-9,20-20S31,8,20,8z M20,46c-9.9,0-18-8.1-18-18s8.1-18,18-18s18,8.1,18,18
	S29.9,46,20,46z"/>
<path class="st1" d="M30.6,38.6c0.4-0.4,0.4-1,0-1.4s-1-0.4-1.4,0s-0.4,1,0,1.4S30.2,39,30.6,38.6z"/>
<path class="st1" d="M29.2,38.6l1.4-1.4l-9.9-9.9l-1.4,1.4L29.2,38.6z"/>
<path class="st1" d="M21.4,29.4c0.8-0.8,0.8-2,0-2.8s-2-0.8-2.8,0s-0.8,2,0,2.8C19.4,30.2,20.6,30.2,21.4,29.4z"/>
<path class="st1" d="M20,16c0.6,0,1,0.4,1,1s-0.4,1-1,1s-1-0.4-1-1S19.4,16,20,16z"/>
<path class="st1" d="M19,17h2v11h-2V17z"/>
<path class="st0" d="M88,28c0,7.5-3,14.2-7.9,19.1l1.4,1.4C86.8,43.3,90,36,90,28s-3.2-15.3-8.5-20.5l-1.4,1.4
	C85,13.8,88,20.5,88,28z"/>
<path class="st0" d="M85.7,3.3C92.1,9.6,96,18.3,96,28s-3.9,18.4-10.3,24.7l1.4,1.4C93.9,47.5,98,38.2,98,28S93.9,8.5,87.2,1.8
	L85.7,3.3z"/>
</svg>
