<?xml version="1.0" encoding="utf-8"?>
<!-- Generator: Adobe Illustrator 22.0.1, SVG Export Plug-In . SVG Version: 6.00 Build 0)  -->
<svg version="1.1" xmlns="http://www.w3.org/2000/svg" xmlns:xlink="http://www.w3.org/1999/xlink" x="0px" y="0px"
	 viewBox="0 0 80 80" style="enable-background:new 0 0 80 80;" xml:space="preserve">
<style type="text/css">
	.st0{fill:#FB892D;}
	.st1{fill-rule:evenodd;clip-rule:evenodd;fill:#56775B;}
</style>
<g id="Layer_1">
	<g>
		<path class="st0" d="M63.3,36.5c0.4-0.4,0.4-1,0-1.4s-1-0.4-1.4,0l-7.8,7.8l0,0L41.4,30.1L40,31.5l9.2,9.2l0,0l3.8,3.8l0,0
			l2.2,2.2l0,0l0,0l0,0l0,0c0.6,0.6,0.6,1.5,0,2.1s-1.5,0.6-2.1,0l0,0l-2.2-2.2l0,0l-3.8-3.8c-0.4-0.4-1-0.4-1.4,0s-0.4,1,0,1.4
			l3.8,3.8l2.2,2.2c0.3,0.3,0.4,0.6,0.4,1.1c0,0.8-0.7,1.5-1.5,1.5c-0.4,0-0.8-0.2-1.1-0.4l0,0l0,0l-2.2-2.2l-3.8-3.8
			c-0.4-0.4-1-0.4-1.4,0s-0.4,1,0,1.4l3.8,3.8l2.2,2.2c0.3,0.3,0.4,0.6,0.4,1.1c0,0.8-0.7,1.5-1.5,1.5c-0.4,0-0.8-0.2-1.1-0.4l0,0
			l-2.2-2.2l0,0L40,49.9c-0.4-0.4-1-0.4-1.4,0c-0.4,0.4-0.4,1,0,1.4l6,6l0,0c0.3,0.3,0.4,0.6,0.4,1.1c0,0.8-0.7,1.5-1.5,1.5
			c-0.4,0-0.8-0.2-1.1-0.4l0,0L42,59.1l0,0l-1.4-1.4l0,0l-0.5-0.5l0,0l-1.9-1.9c0.4-1.2,0.2-2.7-0.8-3.6c-0.4-0.4-0.8-0.6-1.3-0.8
			l0.6-0.6l0,0l0,0c1.4-1.4,1.4-3.6,0-4.9c-0.7-0.7-1.6-1-2.5-1c0-0.9-0.3-1.8-1-2.5c-1.4-1.4-3.6-1.4-4.9,0l0,0l0,0l-1.8,1.8
			l-7.7-7.9c-0.4-0.4-1-0.4-1.4,0s-0.4,1,0,1.4l7.7,7.9l-1.7,1.7l0,0c-1.3,1.4-1.3,3.6,0,4.9c0.7,0.7,1.6,1,2.5,1
			c0,0.9,0.3,1.8,1,2.5s1.6,1,2.5,1c0,0.9,0.3,1.8,1,2.5s1.6,1,2.5,1c0,0.9,0.3,1.8,1,2.5c1.4,1.4,3.6,1.4,4.9,0l0,0l1.8-1.8
			l0.4,0.4l0,0c0.6,0.6,1.5,1,2.5,1c1.9,0,3.5-1.6,3.5-3.5l0,0l0,0c1.9,0,3.5-1.6,3.5-3.5l0,0l0,0c1.9,0,3.5-1.6,3.5-3.5l0,0
			c0.9,0,1.8-0.3,2.5-1c1.4-1.4,1.4-3.6,0-4.9l0,0l0,0l-1.1-1.1l0,0L63.3,36.5z M24.8,50.3c-0.6-0.6-0.6-1.5,0-2.1l4.9-4.9
			c0.6-0.6,1.5-0.6,2.1,0c0.6,0.6,0.6,1.5,0,2.1l-4.9,4.9C26.3,50.8,25.4,50.8,24.8,50.3z M28.3,53.8c-0.6-0.6-0.6-1.5,0-2.1
			l4.9-4.9l0,0c0.6-0.6,1.5-0.6,2.1,0c0.6,0.6,0.6,1.5,0,2.1l-2.9,2.9l0,0l-0.6,0.6l-1.5,1.5C29.9,54.4,28.9,54.4,28.3,53.8z
			 M31.9,57.3c-0.6-0.6-0.6-1.5,0-2.1l2.1-2.1c0.6-0.6,1.5-0.6,2.1,0c0.6,0.6,0.6,1.5,0,2.1L34,57.3C33.4,57.9,32.5,57.9,31.9,57.3z
			 M35.4,60.9c-0.6-0.6-0.6-1.5,0-2.1l0,0l1.8-1.8l2.1,2.1l-1.8,1.8l0,0l0,0C36.9,61.4,36,61.4,35.4,60.9z"/>
		<path class="st0" d="M31.5,34.3c1.6,1.6,4.1,1.6,5.7,0l5.7-5.7c0.4-0.4,0.4-1,0-1.4s-1-0.4-1.4,0l-5.7,5.7c-0.8,0.8-2,0.8-2.8,0
			s-0.8-2,0-2.8l3.5-3.5l0,0l0.7-0.7l0,0l0.4-0.4L40,23c0.8-0.8,2-0.8,2.8,0l0,0c0.3,0.3,0.7,0.7,1.4,1.4c2.8,2.8,5.7,0,5.7,0
			l0.7-0.7c0,0,0.7-0.7,0-1.4c-0.7-0.7-1.4,0-1.4,0L48.5,23c0,0-1.4,1.4-2.8,0c-1.4-1.4-1.4-1.4-1.4-1.4c-1.6-1.6-4.1-1.6-5.7,0
			l-2.8,2.8L33,21.6c-0.4-0.4-1-0.4-1.4,0s-0.4,1,0,1.4l2.8,2.8l-2.8,2.8C30,30.2,30,32.8,31.5,34.3z"/>
	</g>
</g>
<g id="Layer_2">
</g>
<g id="Layer_3">
	<path class="st1" d="M68.3,11.7c-15.6-15.6-40.9-15.6-56.6,0c-15.6,15.6-15.6,40.9,0,56.6c15.6,15.6,40.9,15.6,56.6,0
		C83.9,52.7,83.9,27.3,68.3,11.7z M20.2,59.8c-10.9-10.9-10.9-28.7,0-39.6c10.9-10.9,28.7-10.9,39.6,0c10.9,10.9,10.9,28.7,0,39.6
		C48.9,70.7,31.1,70.7,20.2,59.8z M66.2,54.6c5.1-9.1,5.1-20.2,0-29.3l6.7-4.5c6.8,11.8,6.8,26.4,0,38.2L66.2,54.6z M59.1,7.1
		l-4.5,6.7c-9.1-5.1-20.2-5.1-29.3,0l-4.5-6.7C32.7,0.3,47.3,0.3,59.1,7.1z M7.1,20.9l6.7,4.5c-5.1,9.1-5.1,20.2,0,29.3l-6.7,4.5
		C0.3,47.3,0.3,32.7,7.1,20.9z M20.9,72.9l4.5-6.7c9.1,5.1,20.2,5.1,29.3,0l4.5,6.7C47.3,79.7,32.7,79.7,20.9,72.9z"/>
</g>
</svg>
