<?xml version="1.0" encoding="utf-8"?>
<!-- Generator: Adobe Illustrator 22.0.1, SVG Export Plug-In . SVG Version: 6.00 Build 0)  -->
<svg version="1.1" id="Layer_1" xmlns="http://www.w3.org/2000/svg" xmlns:xlink="http://www.w3.org/1999/xlink" x="0px" y="0px"
	 viewBox="0 0 87 76" style="enable-background:new 0 0 87 76;" xml:space="preserve">
<style type="text/css">
	.st0{fill-rule:evenodd;clip-rule:evenodd;fill:#FB5E2D;}
	.st1{fill-rule:evenodd;clip-rule:evenodd;fill:#4B686C;}
</style>
<path class="st0" d="M83,68c0-2.2-1.8-4-4-4H53c-2.2,0-4,1.8-4,4c-2.2,0-4,1.8-4,4c0,2.2,1.8,4,4,4h34c2.2,0,4-1.8,4-4
	C87,69.8,85.2,68,83,68z M83,74h-4H53h-4c-1.1,0-2-0.9-2-2c0-1.1,0.9-2,2-2c0,0,2,0,2-2c0-0.2,0-0.3,0-0.4c0,0,0,0,0,0
	c0-0.1,0-0.1,0.1-0.2c0.3-0.8,1-1.4,1.9-1.4h26c0.9,0,1.6,0.6,1.9,1.4c0,0.1,0,0.1,0.1,0.2c0,0,0,0,0,0c0,0.1,0,0.2,0,0.4
	c0,2,2,2,2,2c1.1,0,2,0.9,2,2C85,73.1,84.1,74,83,74z"/>
<path class="st0" d="M54,68h24c0.6,0,1,0.4,1,1c0,0.6-0.4,1-1,1H54c-0.6,0-1-0.4-1-1C53,68.4,53.4,68,54,68z"/>
<path class="st1" d="M44.4,2.8L43,1.4c-0.8-0.8-2-0.8-2.8,0L28.9,12.7c-0.8,0.8-0.8,2,0,2.8l1.4,1.4c0.8,0.8,2,0.8,2.8,0L44.4,5.6
	C45.2,4.8,45.2,3.6,44.4,2.8z M31.7,15.5l-1.4-1.4L41.6,2.8L43,4.2L31.7,15.5z"/>
<path class="st1" d="M32.4,16.2l1.4-1.4l2.1,2.1l-1.4,1.4L32.4,16.2z"/>
<path class="st1" d="M42.3,6.3l1.4-1.4L45.8,7l-1.4,1.4L42.3,6.3z"/>
<path class="st1" d="M65.6,24l-1.4-1.4c-0.8-0.8-2-0.8-2.8,0L50.1,33.9c-0.8,0.8-0.8,2,0,2.8l1.4,1.4c0.8,0.8,2,0.8,2.8,0l11.3-11.3
	C66.4,26,66.4,24.8,65.6,24z M52.9,36.7l-1.4-1.4L62.8,24l1.4,1.4L52.9,36.7z"/>
<path class="st1" d="M50.8,34.6l1.4-1.4l-2.1-2.1l-1.4,1.4L50.8,34.6z"/>
<path class="st1" d="M60.7,24.7l1.4-1.4L60,21.2l-1.4,1.4L60.7,24.7z"/>
<path class="st1" d="M9.1,63.6c-1.6,1.6-4.1,1.6-5.7,0c-1.6-1.6-1.6-4.1,0-5.7l3.4-3.1c-1.7-0.2-3.5,0.4-4.8,1.7
	c-2.3,2.3-2.3,6.1,0,8.5c2.3,2.3,6.1,2.3,8.5,0c1.3-1.3,1.9-3.1,1.7-4.8L9.1,63.6z"/>
<path class="st1" d="M32.4,40.3l-5.7-5.7c-0.8-0.8-2-0.8-2.8,0L22.5,36c-0.8,0.8-0.8,2,0,2.8l5.7,5.7c0.8,0.8,2,0.8,2.8,0l1.4-1.4
	C33.2,42.3,33.2,41,32.4,40.3z M29.6,43.1l-5.7-5.7l1.4-1.4l5.7,5.7L29.6,43.1z"/>
<path class="st1" d="M60,18.3L48.7,7c-0.8-0.8-2-0.8-2.8,0L34.5,18.3c-0.8,0.8-0.8,2,0,2.8l11.3,11.3c0.8,0.8,2,0.8,2.8,0L60,21.2
	C60.8,20.4,60.8,19.1,60,18.3z M47.3,31.1L35.9,19.7L47.3,8.4l11.3,11.3L47.3,31.1z"/>
<polygon class="st1" points="42.3,27.5 30.1,40.8 31,41.7 29.6,43.1 28.7,42.2 9.1,63.6 10.5,65 43.7,28.9 "/>
<polygon class="st1" points="23.9,37.4 25.3,36 26.2,36.9 39.5,24.7 38.1,23.3 2,56.5 3.4,57.9 24.8,38.3 "/>
</svg>
