<?xml version="1.0" encoding="utf-8"?>
<!-- Generator: Adobe Illustrator 22.0.1, SVG Export Plug-In . SVG Version: 6.00 Build 0)  -->
<svg version="1.1" id="Layer_1" xmlns="http://www.w3.org/2000/svg" xmlns:xlink="http://www.w3.org/1999/xlink" x="0px" y="0px"
	 viewBox="0 0 82 72" style="enable-background:new 0 0 82 72;" xml:space="preserve">
<style type="text/css">
	.st0{fill-rule:evenodd;clip-rule:evenodd;fill:#FB5E2D;}
	.st1{fill:#4B686C;}
</style>
<path class="st0" d="M41,53c-2.8,0-5,2.2-5,5c0,2.8,2.2,5,5,5c2.8,0,5-2.2,5-5C46,55.2,43.8,53,41,53z M41,61c-1.7,0-3-1.3-3-3
	c0-1.7,1.3-3,3-3c1.7,0,3,1.3,3,3C44,59.7,42.7,61,41,61z"/>
<path class="st1" d="M72.2,72H9.8c-3.2,0-6.1-1.7-7.8-4.5c-1.6-2.8-1.6-6.2,0-9L33.2,4.5C34.9,1.7,37.8,0,41,0c0,0,0,0,0,0
	c3.2,0,6.1,1.7,7.8,4.5L80,58.6c1.6,2.8,1.6,6.2,0,9C78.4,70.3,75.5,72,72.2,72z M35,5.5L3.8,59.6c-1.3,2.2-1.3,4.8,0,7
	C5,68.7,7.3,70,9.8,70h62.4c2.5,0,4.8-1.3,6-3.5c1.3-2.2,1.3-4.8,0-7L47,5.5C45.8,3.3,43.5,2,41,2C38.5,2,36.2,3.3,35,5.5L35,5.5z"
	/>
<path class="st0" d="M41,14c-2.8,0-5,2.2-5,5v25c0,2.8,2.2,5,5,5c2.8,0,5-2.2,5-5V19C46,16.2,43.8,14,41,14z M44,23v17v4
	c0,1.7-1.3,3-3,3c-1.7,0-3-1.3-3-3v-4V23v-4c0-1.7,1.3-3,3-3c1.7,0,3,1.3,3,3V23z"/>
</svg>
