<?xml version="1.0" encoding="utf-8"?>
<!-- Generator: Adobe Illustrator 22.0.1, SVG Export Plug-In . SVG Version: 6.00 Build 0)  -->
<svg version="1.1" id="Layer_1" xmlns="http://www.w3.org/2000/svg" xmlns:xlink="http://www.w3.org/1999/xlink" x="0px" y="0px"
	 viewBox="0 0 90 84" style="enable-background:new 0 0 90 84;" xml:space="preserve">
<style type="text/css">
	.st0{fill-rule:evenodd;clip-rule:evenodd;fill:#FB5E2D;}
	.st1{fill-rule:evenodd;clip-rule:evenodd;fill:#4B686C;}
</style>
<g>
	<g>
		<path class="st0" d="M42,40l-2.5,2.5L37,40c0,0-1,0-1,1l2.5,2.5L36,46c0,0,0,1,1,1l2.5-2.5L42,47c1,0,1-1,1-1l-2.5-2.5L43,41
			C43,40,42,40,42,40z M52,40l-2.5,2.5L47,40c0,0-1,0-1,1l2.5,2.5L46,46c0,0,0,1,1,1l2.5-2.5L52,47c1,0,1-1,1-1l-2.5-2.5L53,41
			C53,40,52,40,52,40z M62,40l-2.5,2.5L57,40c0,0-1,0-1,1l2.5,2.5L56,46c0,0,0,1,1,1l2.5-2.5L62,47c1,0,1-1,1-1l-2.5-2.5L63,41
			C63,40,62,40,62,40z M72,40l-2.5,2.5L67,40c0,0-1,0-1,1l2.5,2.5L66,46c0,0,0,1,1,1l2.5-2.5L72,47c1,0,1-1,1-1l-2.5-2.5L73,41
			C73,40,72,40,72,40z M82,40l-2.5,2.5L77,40c0,0-1,0-1,1l2.5,2.5L76,46c0,0,0,1,1,1l2.5-2.5L82,47c1,0,1-1,1-1l-2.5-2.5L83,41
			C83,40,82,40,82,40z M42,50l-2.5,2.5L37,50c0,0-1,0-1,1l2.5,2.5L36,56c0,0,0,1,1,1l2.5-2.5L42,57c1,0,1-1,1-1l-2.5-2.5L43,51
			C43,50,42,50,42,50z M52,50l-2.5,2.5L47,50c0,0-1,0-1,1l2.5,2.5L46,56c0,0,0,1,1,1l2.5-2.5L52,57c1,0,1-1,1-1l-2.5-2.5L53,51
			C53,50,52,50,52,50z M62,50l-2.5,2.5L57,50c0,0-1,0-1,1l2.5,2.5L56,56c0,0,0,1,1,1l2.5-2.5L62,57c1,0,1-1,1-1l-2.5-2.5L63,51
			C63,50,62,50,62,50z M72,50l-2.5,2.5L67,50c0,0-1,0-1,1l2.5,2.5L66,56c0,0,0,1,1,1l2.5-2.5L72,57c1,0,1-1,1-1l-2.5-2.5L73,51
			C73,50,72,50,72,50z M82,50l-2.5,2.5L77,50c0,0-1,0-1,1l2.5,2.5L76,56c0,0,0,1,1,1l2.5-2.5L82,57c1,0,1-1,1-1l-2.5-2.5L83,51
			C83,50,82,50,82,50z M12,40l-2.5,2.5L7,40c0,0-1,0-1,1l2.5,2.5L6,46c0,0,0,1,1,1l2.5-2.5L12,47c1,0,1-1,1-1l-2.5-2.5L13,41
			C13,40,12,40,12,40z M22,40l-2.5,2.5L17,40c0,0-1,0-1,1l2.5,2.5L16,46c0,0,0,1,1,1l2.5-2.5L22,47c1,0,1-1,1-1l-2.5-2.5L23,41
			C23,40,22,40,22,40z M32,40l-2.5,2.5L27,40c0,0-1,0-1,1l2.5,2.5L26,46c0,0,0,1,1,1l2.5-2.5L32,47c1,0,1-1,1-1l-2.5-2.5L33,41
			C33,40,32,40,32,40z M12,50l-2.5,2.5L7,50c0,0-1,0-1,1l2.5,2.5L6,56c0,0,0,1,1,1l2.5-2.5L12,57c1,0,1-1,1-1l-2.5-2.5L13,51
			C13,50,12,50,12,50z M22,50l-2.5,2.5L17,50c0,0-1,0-1,1l2.5,2.5L16,56c0,0,0,1,1,1l2.5-2.5L22,57c1,0,1-1,1-1l-2.5-2.5L23,51
			C23,50,22,50,22,50z M32,50l-2.5,2.5L27,50c0,0-1,0-1,1l2.5,2.5L26,56c0,0,0,1,1,1l2.5-2.5L32,57c1,0,1-1,1-1l-2.5-2.5L33,51
			C33,50,32,50,32,50z M42,60l-2.5,2.5L37,60c0,0-1,0-1,1l2.5,2.5L36,66c0,0,0,1,1,1l2.5-2.5L42,67c1,0,1-1,1-1l-2.5-2.5L43,61
			C43,60,42,60,42,60z M52,60l-2.5,2.5L47,60c0,0-1,0-1,1l2.5,2.5L46,66c0,0,0,1,1,1l2.5-2.5L52,67c1,0,1-1,1-1l-2.5-2.5L53,61
			C53,60,52,60,52,60z M62,60l-2.5,2.5L57,60c0,0-1,0-1,1l2.5,2.5L56,66c0,0,0,1,1,1l2.5-2.5L62,67c1,0,1-1,1-1l-2.5-2.5L63,61
			C63,60,62,60,62,60z M72,60l-2.5,2.5L67,60c0,0-1,0-1,1l2.5,2.5L66,66c0,0,0,1,1,1l2.5-2.5L72,67c1,0,1-1,1-1l-2.5-2.5L73,61
			C73,60,72,60,72,60z M82,60l-2.5,2.5L77,60c0,0-1,0-1,1l2.5,2.5L76,66c0,0,0,1,1,1l2.5-2.5L82,67c1,0,1-1,1-1l-2.5-2.5L83,61
			C83,60,82,60,82,60z M42,70l-2.5,2.5L37,70c0,0-1,0-1,1l2.5,2.5L36,76c0,0,0,1,1,1l2.5-2.5L42,77c1,0,1-1,1-1l-2.5-2.5L43,71
			C43,70,42,70,42,70z M52,70l-2.5,2.5L47,70c0,0-1,0-1,1l2.5,2.5L46,76c0,0,0,1,1,1l2.5-2.5L52,77c1,0,1-1,1-1l-2.5-2.5L53,71
			C53,70,52,70,52,70z M12,60l-2.5,2.5L7,60c0,0-1,0-1,1l2.5,2.5L6,66c0,0,0,1,1,1l2.5-2.5L12,67c1,0,1-1,1-1l-2.5-2.5L13,61
			C13,60,12,60,12,60z M22,60l-2.5,2.5L17,60c0,0-1,0-1,1l2.5,2.5L16,66c0,0,0,1,1,1l2.5-2.5L22,67c1,0,1-1,1-1l-2.5-2.5L23,61
			C23,60,22,60,22,60z M32,60l-2.5,2.5L27,60c0,0-1,0-1,1l2.5,2.5L26,66c0,0,0,1,1,1l2.5-2.5L32,67c1,0,1-1,1-1l-2.5-2.5L33,61
			C33,60,32,60,32,60z M12,70l-2.5,2.5L7,70c0,0-1,0-1,1l2.5,2.5L6,76c0,0,0,1,1,1l2.5-2.5L12,77c1,0,1-1,1-1l-2.5-2.5L13,71
			C13,70,12,70,12,70z M22,70l-2.5,2.5L17,70c0,0-1,0-1,1l2.5,2.5L16,76c0,0,0,1,1,1l2.5-2.5L22,77c1,0,1-1,1-1l-2.5-2.5L23,71
			C23,70,22,70,22,70z M32,70l-2.5,2.5L27,70c0,0-1,0-1,1l2.5,2.5L26,76c0,0,0,1,1,1l2.5-2.5L32,77c1,0,1-1,1-1l-2.5-2.5L33,71
			C33,70,32,70,32,70z M42,30l-2.5,2.5L37,30c0,0-1,0-1,1l2.5,2.5L36,36c0,0,0,1,1,1l2.5-2.5L42,37c1,0,1-1,1-1l-2.5-2.5L43,31
			C43,30,42,30,42,30z M52,30l-2.5,2.5L47,30c0,0-1,0-1,1l2.5,2.5L46,36c0,0,0,1,1,1l2.5-2.5L52,37c1,0,1-1,1-1l-2.5-2.5L53,31
			C53,30,52,30,52,30z M62,30l-2.5,2.5L57,30c0,0-1,0-1,1l2.5,2.5L56,36c0,0,0,1,1,1l2.5-2.5L62,37c1,0,1-1,1-1l-2.5-2.5L63,31
			C63,30,62,30,62,30z M72,30l-2.5,2.5L67,30c0,0-1,0-1,1l2.5,2.5L66,36c0,0,0,1,1,1l2.5-2.5L72,37c1,0,1-1,1-1l-2.5-2.5L73,31
			C73,30,72,30,72,30z M83,31c0-1-1-1-1-1l-2.5,2.5L77,30c0,0-1,0-1,1l2.5,2.5L76,36c0,0,0,1,1,1l2.5-2.5L82,37c1,0,1-1,1-1
			l-2.5-2.5L83,31z M32,30l-2.5,2.5L27,30c0,0-1,0-1,1l2.5,2.5L26,36c0,0,0,1,1,1l2.5-2.5L32,37c1,0,1-1,1-1l-2.5-2.5L33,31
			C33,30,32,30,32,30z"/>
	</g>
</g>
<g>
	<g>
		<path class="st1" d="M67,4H23v2h44V4z M70,16c0.6,0,1-0.4,1-1V1c0-0.6-0.4-1-1-1c-0.6,0-1,0.4-1,1v14C69,15.6,69.4,16,70,16z
			 M67,11c-1.2,0.9-2,2.3-2,4c0,2.8,2.2,5,5,5s5-2.2,5-5c0-1.6-0.8-3.1-2-4v4c0,1.7-1.3,3-3,3c-1.7,0-3-1.3-3-3V11z M20,16
			c0.6,0,1-0.4,1-1V1c0-0.6-0.4-1-1-1c-0.6,0-1,0.4-1,1v14C19,15.6,19.4,16,20,16z M90,24V6c0-1.1-0.9-2-2-2H73v2h15v18H2V6h15V4H2
			C0.9,4,0,4.9,0,6v76c0,1.1,0.9,2,2,2h86c1.1,0,2-0.9,2-2V26h0L90,24L90,24z M88,82H2V26h86V82z M14,78h1v-9h9v9h1v-9h9v9h1v-9h9v9
			h1v-9h9v9h1v-9h9v9h1v-9h9v9h1v-9h11v-1H75v-9h11v-1H75v-9h11v-1H75v-9h11v-1H75v-8h-1v8h-9v-8h-1v8h-9v-8h-1v8h-9v-8h-1v8h-9v-8
			h-1v8h-9v-8h-1v8h-9v-8h-1v8H4v1h10v9H4v1h10v9H4v1h10v9H4v1h10V78z M65,39h9v9h-9V39z M65,49h9v9h-9V49z M65,59h9v9h-9V59z
			 M55,39h9v9h-9V39z M55,49h9v9h-9V49z M55,59h9v9h-9V59z M45,39h9v9h-9V39z M45,49h9v9h-9V49z M45,59h9v9h-9V59z M35,39h9v9h-9V39
			z M35,49h9v9h-9V49z M35,59h9v9h-9V59z M25,39h9v9h-9V39z M25,49h9v9h-9V49z M25,59h9v9h-9V59z M15,39h9v9h-9V39z M15,49h9v9h-9
			V49z M15,59h9v9h-9V59z M17,11c-1.2,0.9-2,2.3-2,4c0,2.8,2.2,5,5,5c2.8,0,5-2.2,5-5c0-1.6-0.8-3.1-2-4v4c0,1.7-1.3,3-3,3
			c-1.7,0-3-1.3-3-3V11z"/>
	</g>
</g>
</svg>
