<?xml version="1.0" encoding="utf-8"?>
<!-- Generator: Adobe Illustrator 22.0.1, SVG Export Plug-In . SVG Version: 6.00 Build 0)  -->
<svg version="1.1" id="Layer_1" xmlns="http://www.w3.org/2000/svg" xmlns:xlink="http://www.w3.org/1999/xlink" x="0px" y="0px"
	 viewBox="0 0 73 80" style="enable-background:new 0 0 73 80;" xml:space="preserve">
<style type="text/css">
	.st0{fill:#56775B;}
	.st1{fill:#FB892D;}
</style>
<path class="st0" d="M10,16h40v2H10V16z"/>
<path class="st0" d="M10,26h30v2H10V26z"/>
<path class="st0" d="M10,36h35v2H10V36z"/>
<path class="st0" d="M10,46h26v2H10V46z"/>
<path class="st0" d="M10,56h38v2H10V56z"/>
<path class="st0" d="M10,66h35v2H10V66z"/>
<path class="st0" d="M59,61c-0.3,0-0.7,0-1-0.1V78H2V2h56v27.1c0.3,0,0.7-0.1,1-0.1s0.7,0,1,0.1V2c0-1.1-0.9-2-2-2H2
	C0.9,0,0,0.9,0,2v76c0,1.1,0.9,2,2,2h56c1.1,0,2-0.9,2-2V60.9C59.7,61,59.3,61,59,61z"/>
<path class="st1" d="M59,49.4l-7.7-7.7c-0.4-0.4-0.4-1,0-1.4s1-0.4,1.4,0l6.3,6.3l12.3-12.3c0.4-0.4,1-0.4,1.4,0s0.4,1,0,1.4
	L59,49.4z"/>
<path class="st1" d="M70.3,41.1c0.4,1.2,0.7,2.5,0.7,3.9c0,6.6-5.4,12-12,12s-12-5.4-12-12s5.4-12,12-12c3,0,5.7,1.1,7.7,2.8
	l1.4-1.4C65.7,32.3,62.5,31,59,31c-7.7,0-14,6.3-14,14s6.3,14,14,14s14-6.3,14-14c0-1.9-0.4-3.8-1.1-5.5L70.3,41.1z"/>
</svg>
