<?xml version="1.0" encoding="utf-8"?>
<!-- Generator: Adobe Illustrator 22.0.1, SVG Export Plug-In . SVG Version: 6.00 Build 0)  -->
<svg version="1.1" id="Layer_1" xmlns="http://www.w3.org/2000/svg" xmlns:xlink="http://www.w3.org/1999/xlink" x="0px" y="0px"
	 viewBox="0 0 90 80" style="enable-background:new 0 0 90 80;" xml:space="preserve">
<style type="text/css">
	.st0{fill-rule:evenodd;clip-rule:evenodd;fill:#4B686C;}
	.st1{fill-rule:evenodd;clip-rule:evenodd;fill:#FB5E2D;}
</style>
<path class="st0" d="M21.4,24.5c-1.9,1-4.1,1.5-6.4,1.5c-2.3,0-4.5-0.6-6.4-1.5L0,59c0,0,0,2,2,2c0.8,0,2.9,0,5.3,0L10,80h10l2.7-19
	c2.3,0,4.5,0,5.3,0c2,0,2-2,2-2L21.4,24.5z M21,59l-2.7,19h-6.5L9,59h-7l8-31.8c1.6,0.5,3.3,0.8,5,0.8c1.7,0,3.4-0.3,5-0.8l8,31.8
	H21z"/>
<path class="st0" d="M15,0C8.4,0,3,5.4,3,12c0,6.6,5.4,12,12,12c6.6,0,12-5.4,12-12C27,5.4,21.6,0,15,0z M15,22C9.5,22,5,17.5,5,12
	S9.5,2,15,2s10,4.5,10,10S20.5,22,15,22z"/>
<path class="st0" d="M81.4,24.5c-1.9,1-4.1,1.5-6.4,1.5c-2.3,0-4.5-0.6-6.4-1.5L60,59c0,0,0,2,2,2c0.8,0,2.9,0,5.3,0L70,80h10
	l2.7-19c2.3,0,4.5,0,5.3,0c2,0,2-2,2-2L81.4,24.5z M81,59l-2.7,19h-6.5L69,59h-7l8-31.8c1.6,0.5,3.3,0.8,5,0.8s3.4-0.3,5-0.8l8,31.8
	H81z"/>
<path class="st0" d="M75,0c-6.6,0-12,5.4-12,12c0,6.6,5.4,12,12,12s12-5.4,12-12C87,5.4,81.6,0,75,0z M75,22c-5.5,0-10-4.5-10-10
	S69.5,2,75,2s10,4.5,10,10S80.5,22,75,22z"/>
<path class="st1" d="M51.4,24.5c-1.9,1-4.1,1.5-6.4,1.5c-2.3,0-4.5-0.6-6.4-1.5L30,59c0,0,0,2,2,2c0.8,0,2.9,0,5.3,0L40,80h10
	l2.7-19c2.3,0,4.5,0,5.3,0c2,0,2-2,2-2L51.4,24.5z M51,59l-2.7,19h-6.5L39,59h-7l8-31.8c1.6,0.5,3.3,0.8,5,0.8s3.4-0.3,5-0.8l8,31.8
	H51z"/>
<path class="st1" d="M45,0c-6.6,0-12,5.4-12,12c0,6.6,5.4,12,12,12c6.6,0,12-5.4,12-12C57,5.4,51.6,0,45,0z M45,22
	c-5.5,0-10-4.5-10-10S39.5,2,45,2s10,4.5,10,10S50.5,22,45,22z"/>
</svg>
