<?xml version="1.0" encoding="utf-8"?>
<!-- Generator: Adobe Illustrator 22.0.1, SVG Export Plug-In . SVG Version: 6.00 Build 0)  -->
<svg version="1.1" id="Layer_1" xmlns="http://www.w3.org/2000/svg" xmlns:xlink="http://www.w3.org/1999/xlink" x="0px" y="0px"
	 viewBox="0 0 64 76" style="enable-background:new 0 0 64 76;" xml:space="preserve">
<style type="text/css">
	.st0{fill:#FB5E2D;}
	.st1{fill-rule:evenodd;clip-rule:evenodd;fill:#4B686C;}
</style>
<path class="st0" d="M55.3,6.6C39.3,6.6,32,0,32,0S24.7,6.6,8.7,6.6C6,6.6,3.1,6.4,0,6c0,0,0,0,0,32c0,30,32,38,32,38s32-8,32-38
	c0-32,0-32,0-32C60.9,6.4,58,6.6,55.3,6.6z M62,38c0,11.7-5.1,21.3-15.1,28.6c-6.5,4.7-13.1,6.8-14.9,7.4c-1.8-0.5-8.4-2.7-14.9-7.4
	C7.1,59.3,2,49.7,2,38V8.3c2.3,0.2,4.5,0.4,6.7,0.4c12.9,0,20.4-4.1,23.3-6.1c2.9,2,10.4,6.1,23.3,6.1c2.2,0,4.4-0.1,6.7-0.4V38z"/>
<g>
	<path class="st1" d="M55.3,34.5c0.4-0.4,0.4-1,0-1.4c-0.4-0.4-1-0.4-1.4,0l-7.8,7.8c0,0,0,0,0,0L33.4,28.1L32,29.5l9.2,9.2l0,0
		l3.8,3.8h0l2.2,2.2c0,0,0,0,0,0l0,0l0,0c0,0,0,0,0,0c0.6,0.6,0.6,1.5,0,2.1c-0.6,0.6-1.5,0.6-2.1,0c0,0,0,0,0,0l-2.2-2.2v0
		l-3.8-3.8c-0.4-0.4-1-0.4-1.4,0c-0.4,0.4-0.4,1,0,1.4l3.8,3.8l2.2,2.2c0.3,0.3,0.4,0.6,0.4,1.1c0,0.8-0.7,1.5-1.5,1.5
		c-0.4,0-0.8-0.2-1.1-0.4l0,0c0,0,0,0,0,0l-2.2-2.2l-3.8-3.8c-0.4-0.4-1-0.4-1.4,0c-0.4,0.4-0.4,1,0,1.4l3.8,3.8l2.2,2.2
		c0.3,0.3,0.4,0.6,0.4,1.1c0,0.8-0.7,1.5-1.5,1.5c-0.4,0-0.8-0.2-1.1-0.4l0,0l-2.2-2.2l0,0L32,47.9c-0.4-0.4-1-0.4-1.4,0
		c-0.4,0.4-0.4,1,0,1.4l6,6l0,0c0.3,0.3,0.4,0.6,0.4,1.1c0,0.8-0.7,1.5-1.5,1.5c-0.4,0-0.8-0.2-1.1-0.4h0l-0.4-0.4l0,0l-1.4-1.4l0,0
		l-0.5-0.5c0,0,0,0,0,0l-1.9-1.9c0.4-1.2,0.2-2.7-0.8-3.6c-0.4-0.4-0.8-0.6-1.3-0.8l0.6-0.6l0,0c0,0,0,0,0,0c1.4-1.4,1.4-3.6,0-4.9
		c-0.7-0.7-1.6-1-2.5-1c0-0.9-0.3-1.8-1-2.5c-1.4-1.4-3.6-1.4-4.9,0c0,0,0,0,0,0l0,0l-1.8,1.8l-7.7-7.9c-0.4-0.4-1-0.4-1.4,0
		c-0.4,0.4-0.4,1,0,1.4l7.7,7.9l-1.7,1.7l0,0c-1.3,1.4-1.3,3.6,0,4.9c0.7,0.7,1.6,1,2.5,1c0,0.9,0.3,1.8,1,2.5c0.7,0.7,1.6,1,2.5,1
		c0,0.9,0.3,1.8,1,2.5c0.7,0.7,1.6,1,2.5,1c0,0.9,0.3,1.8,1,2.5c1.4,1.4,3.6,1.4,4.9,0c0,0,0,0,0,0l1.8-1.8l0.4,0.4l0,0
		c0.6,0.6,1.5,1,2.5,1c1.9,0,3.5-1.6,3.5-3.5c0,0,0,0,0,0c0,0,0,0,0,0c1.9,0,3.5-1.6,3.5-3.5c0,0,0,0,0,0c0,0,0,0,0,0
		c1.9,0,3.5-1.6,3.5-3.5c0,0,0,0,0,0c0.9,0,1.8-0.3,2.5-1c1.4-1.4,1.4-3.6,0-4.9c0,0,0,0,0,0l0,0l-1.1-1.1c0,0,0,0,0,0L55.3,34.5z
		 M16.8,48.3c-0.6-0.6-0.6-1.5,0-2.1l4.9-4.9c0.6-0.6,1.5-0.6,2.1,0c0.6,0.6,0.6,1.5,0,2.1l-4.9,4.9C18.3,48.8,17.4,48.8,16.8,48.3z
		 M20.3,51.8c-0.6-0.6-0.6-1.5,0-2.1l4.9-4.9l0,0c0.6-0.6,1.5-0.6,2.1,0c0.6,0.6,0.6,1.5,0,2.1l-2.9,2.9l0,0l-0.6,0.6l-1.5,1.5
		C21.9,52.4,20.9,52.4,20.3,51.8z M23.9,55.3c-0.6-0.6-0.6-1.5,0-2.1l2.1-2.1c0.6-0.6,1.5-0.6,2.1,0c0.6,0.6,0.6,1.5,0,2.1L26,55.3
		C25.4,55.9,24.5,55.9,23.9,55.3z M27.4,58.9c-0.6-0.6-0.6-1.5,0-2.1l0,0l1.8-1.8l2.1,2.1l-1.8,1.8l0,0c0,0,0,0,0,0
		C28.9,59.4,28,59.4,27.4,58.9z"/>
	<path class="st1" d="M23.5,32.3c1.6,1.6,4.1,1.6,5.7,0l5.7-5.7c0.4-0.4,0.4-1,0-1.4c-0.4-0.4-1-0.4-1.4,0l-5.7,5.7
		c-0.8,0.8-2,0.8-2.8,0c-0.8-0.8-0.8-2,0-2.8l3.5-3.5l0,0l0.7-0.7l0,0l0.4-0.4L32,21c0.8-0.8,2-0.8,2.8,0l0,0
		c0.3,0.3,0.7,0.7,1.4,1.4c2.8,2.8,5.7,0,5.7,0l0.7-0.7c0,0,0.7-0.7,0-1.4c-0.7-0.7-1.4,0-1.4,0L40.5,21c0,0-1.4,1.4-2.8,0
		c-1.4-1.4-1.4-1.4-1.4-1.4c-1.6-1.6-4.1-1.6-5.7,0l-2.8,2.8l-2.8-2.8c-0.4-0.4-1-0.4-1.4,0c-0.4,0.4-0.4,1,0,1.4l2.8,2.8l-2.8,2.8
		C22,28.2,22,30.8,23.5,32.3z"/>
</g>
</svg>
